<svg width="32" height="32" viewBox="0 0 512 512" xmlns="http://www.w3.org/2000/svg">
  <rect width="512" height="512" rx="100" fill="#0f766e"/>
  <path fill="white" transform="translate(256, 256) rotate(45) scale(0.8) translate(-256, -240)" d="M464 128c-26.5 0-48 21.5-48 48 0 5.6 1 11 2.7 16H205.3c1.7-5 2.7-10.4 2.7-16 0-26.5-21.5-48-48-48s-48 21.5-48 48c0 21.6 14.3 39.9 34 45.9L112.4 256c-19.7 6-34 24.3-34 45.9 0 26.5 21.5 48 48 48s48-21.5 48-48c0-5.6-1-11-2.7-16h213.3c-1.7 5-2.7 10.4-2.7 16 0 26.5 21.5 48 48 48s48-21.5 48-48c0-21.6-14.3-39.9-34-45.9L527.6 173.9c19.7-6 34-24.3 34-45.9 0-26.5-21.5-48-48-48z"/>
</svg>
